<?xml version="1.0" encoding="UTF-8" standalone="no"?>
<svg
   width="288.90103"
   height="317.30789"
   viewBox="0 0 288.90103 317.30789"
   version="1.1"
   id="svg1435"
   sodipodi:docname="zorrita 2.svg"
   inkscape:version="1.2.2 (b0a8486541, 2022-12-01)"
   xmlns:inkscape="http://www.inkscape.org/namespaces/inkscape"
   xmlns:sodipodi="http://sodipodi.sourceforge.net/DTD/sodipodi-0.dtd"
   xmlns="http://www.w3.org/2000/svg"
   xmlns:svg="http://www.w3.org/2000/svg">
  <sodipodi:namedview
     id="namedview1437"
     pagecolor="#ffffff"
     bordercolor="#000000"
     borderopacity="0.25"
     inkscape:showpageshadow="2"
     inkscape:pageopacity="0.0"
     inkscape:pagecheckerboard="0"
     inkscape:deskcolor="#d1d1d1"
     showgrid="false"
     inkscape:zoom="0.37509158"
     inkscape:cx="514.54101"
     inkscape:cy="426.56249"
     inkscape:window-width="1366"
     inkscape:window-height="696"
     inkscape:window-x="0"
     inkscape:window-y="0"
     inkscape:window-maximized="1"
     inkscape:current-layer="svg1435" />
  <defs
     id="defs1187">
    <linearGradient
       id="gradient_0"
       gradientUnits="userSpaceOnUse"
       x1="1334.7466"
       y1="672.56317"
       x2="1261.41"
       y2="530.4198"
       gradientTransform="translate(-1621.7572,166.9522)">
      <stop
         offset="0"
         stop-color="#D0CFD0"
         id="stop1182" />
      <stop
         offset="1"
         stop-color="#FEFEFE"
         id="stop1184" />
    </linearGradient>
    <linearGradient
       id="linearGradient1659"
       gradientUnits="userSpaceOnUse"
       x1="1325.2372"
       y1="740.27063"
       x2="1236.7993"
       y2="636.95007"
       gradientTransform="translate(-1621.7572,166.9522)">
      <stop
         offset="0"
         stop-color="#A75B0E"
         id="stop1207-7" />
      <stop
         offset="1"
         stop-color="#F27815"
         id="stop1209-5" />
    </linearGradient>
    <linearGradient
       id="linearGradient1663"
       gradientUnits="userSpaceOnUse"
       x1="1346.9807"
       y1="807.49188"
       x2="1292.649"
       y2="827.40955"
       gradientTransform="translate(-1621.7572,166.9522)">
      <stop
         offset="0"
         stop-color="#83450B"
         id="stop1244-3" />
      <stop
         offset="1"
         stop-color="#B96812"
         id="stop1246-5" />
    </linearGradient>
    <linearGradient
       id="gradient_0-3"
       gradientUnits="userSpaceOnUse"
       x1="1334.7466"
       y1="672.56317"
       x2="1261.41"
       y2="530.4198"
       gradientTransform="matrix(1.3505805,-2.3392743,2.3392743,1.3505805,-3406.9449,3060.0012)">
      <stop
         offset="0"
         stop-color="#D0CFD0"
         id="stop1182-6" />
      <stop
         offset="1"
         stop-color="#FEFEFE"
         id="stop1184-1" />
    </linearGradient>
    <linearGradient
       id="linearGradient1659-0"
       gradientUnits="userSpaceOnUse"
       x1="1325.2372"
       y1="740.27063"
       x2="1236.7993"
       y2="636.95007"
       gradientTransform="matrix(1.3505805,-2.3392743,2.3392743,1.3505805,-3406.9449,3060.0012)">
      <stop
         offset="0"
         stop-color="#A75B0E"
         id="stop1207-7-6" />
      <stop
         offset="1"
         stop-color="#F27815"
         id="stop1209-5-3" />
    </linearGradient>
    <linearGradient
       id="linearGradient1663-2"
       gradientUnits="userSpaceOnUse"
       x1="1346.9807"
       y1="807.49188"
       x2="1292.649"
       y2="827.40955"
       gradientTransform="matrix(1.3505805,-2.3392743,2.3392743,1.3505805,-3406.9449,3060.0012)">
      <stop
         offset="0"
         stop-color="#83450B"
         id="stop1244-3-0" />
      <stop
         offset="1"
         stop-color="#B96812"
         id="stop1246-5-6" />
    </linearGradient>
  </defs>
  <defs
     id="defs1212">
    <linearGradient
       id="gradient_1"
       gradientUnits="userSpaceOnUse"
       x1="1325.2372"
       y1="740.27063"
       x2="1236.7993"
       y2="636.95007"
       gradientTransform="translate(-1851.7243,79.850076)">
      <stop
         offset="0"
         stop-color="#A75B0E"
         id="stop1207" />
      <stop
         offset="1"
         stop-color="#F27815"
         id="stop1209" />
    </linearGradient>
  </defs>
  <defs
     id="defs1249">
    <linearGradient
       id="gradient_2"
       gradientUnits="userSpaceOnUse"
       x1="1346.9807"
       y1="807.49188"
       x2="1292.649"
       y2="827.40955"
       gradientTransform="translate(-1851.7243,79.850076)">
      <stop
         offset="0"
         stop-color="#83450B"
         id="stop1244" />
      <stop
         offset="1"
         stop-color="#B96812"
         id="stop1246" />
    </linearGradient>
  </defs>
  <defs
     id="defs1386">
    <linearGradient
       id="gradient_3"
       gradientUnits="userSpaceOnUse"
       x1="513.12323"
       y1="1431.3933"
       x2="591.16492"
       y2="1145.2251">
      <stop
         offset="0"
         stop-color="#6C7EA6"
         id="stop1381" />
      <stop
         offset="1"
         stop-color="#B8BFD5"
         id="stop1383" />
    </linearGradient>
  </defs>
  <defs
     id="defs1395">
    <linearGradient
       id="gradient_4"
       gradientUnits="userSpaceOnUse"
       x1="633.85724"
       y1="1102.6511"
       x2="594.66095"
       y2="1232.1215">
      <stop
         offset="0"
         stop-color="#616183"
         id="stop1390" />
      <stop
         offset="1"
         stop-color="#8388A6"
         id="stop1392" />
    </linearGradient>
  </defs>
  <g
     id="g1471"
     transform="matrix(0.24134776,0,0,0.24134776,163.13314,-52.152028)">
    <g
       id="g620"
       transform="matrix(1.0759239,0.10691486,-0.10691486,1.0759239,95.131253,-26.054827)">
      <path
         fill="#09071c"
         d="m -411.59135,359.28277 c 1.69132,-24.9115 4.98483,-94.90367 42.64219,-97.55302 19.82227,-1.40602 41.69039,43.06486 45.40434,61.27213 9.74422,13.26746 15.27467,11.25168 31.38508,12.69306 16.88213,2.01172 34.29171,3.70413 50.89316,7.20685 91.90767,-108.47175 168.594875,-170.99203 172.734806,24.15435 0.706224,33.719 -27.106714,98.69365 -14.041962,118.89986 36.095721,66.87679 46.913281,102.22289 6.090491,169.94794 21.645288,23.78781 61.583632,84.7113 80.1638007,98.15212 58.4422233,42.28778 129.0941943,64.14618 156.3099743,141.17941 9.74416,27.58377 12.7008,61.63515 21.46302,87.99702 82.8421,-19.29265 149.46208,-27.52151 225.98806,22.93001 20.47552,13.4747 123.63165,82.0458 91.92573,108.8104 -86.40118,72.9437 -211.54734,99.72 -312.71153,42.9659 -6.18387,21.2884 -11.75273,42.7759 -16.67323,64.3883 -19.0671,3.0583 -39.58176,27.6134 -72.159228,39.0593 8.928918,13.8261 18.306118,18.4914 8.539898,33.9375 -4.60669,-11.2369 -8.931568,-17.009 -15.693008,-27.026 -24.730567,-3.1119 -60.199159,-14.6693 -87.6739543,-19.241 6.823794,24.4629 8.6247993,34.5791 5.906917,60.0208 -3.2579,30.5257 -31.0640127,170.9538 -80.3417657,138.7292 l -0.87899,-1.1625 c -27.237371,-34.9388 28.779063,-101.5957 -3.932105,-125.2224 -33.253024,-24.0332 -77.259984,-27.5762 -113.310634,-57.6224 -60.44819,-50.4013 -25.56311,-78.0752 -28.25865,-142.6047 -3.74429,-50.4443 -76.63083,-109.4306 -114.58274,-139.57637 -14.49895,15.5832 -27.99584,37.57757 -41.76639,53.08227 -36.39845,40.9915 -139.87811,58.9427 -192.78473,61.4898 -11.77832,3.5239 -32.15737,-0.3507 -40.64291,-9.9909 -18.81705,-41.4304 110.04115,-104.6458 130.67639,-134.1528 18.50656,-26.46289 9.70335,-64.76313 15.15795,-95.11231 5.93345,-33.00463 21.41334,-61.74521 31.92695,-93.35309 9.71556,-29.19914 15.20803,-58.12292 21.26326,-88.15652 -18.8545,-17.21728 -46.12055,-38.57359 -60.783,-58.04916 -36.67567,-48.74696 18.26046,-135.14734 36.6211,-184.74413 11.18142,-30.19307 15.20919,-39.87592 21.14171,-73.34892 z"
         id="path1180-1"
         style="stroke-width:2.70116" />
      <path
         fill="url(#gradient_0)"
         d="m -467.11005,596.68228 c 5.03124,-6.07802 10.78892,-13.45211 16.30502,-18.93832 23.57256,-21.3859 54.15768,-38.0681 87.0532,-30.05486 17.56429,-5.36088 23.1583,-6.90328 41.25001,-8.59108 68.8039,2.88819 148.24121,4.83535 202.55635,51.72696 10.77965,24.96907 10.84834,32.4944 0.78209,58.06011 -1.24505,3.24235 -2.57844,6.46486 -4.00022,9.66757 l -10.03773,7.4294 6.42137,6.32736 14.79442,-9.86072 c 7.8098,13.39822 14.152634,18.77573 25.289022,29.69673 -3.684607,9.28837 -3.817222,11.45751 -10.990469,17.85835 -10.807303,3.95965 -16.717743,12.30601 -24.408443,20.99691 -9.9969,12.47463 -26.3201,22.48199 -39.73649,31.36049 24.70957,4.75302 30.9376,7.84974 52.49102,20.66788 29.982129,38.08293 1.37943,68.22989 -21.0048,101.59279 19.64464,-5.90641 40.265496,-11.34278 57.954925,-21.93373 7.788403,-4.67331 25.390575,-19.89962 32.335281,-20.19436 -1.950508,7.57599 -4.830076,10.18653 -9.738305,16.55391 -1.862126,3.60345 -3.86173,7.15872 -5.974155,10.61767 -17.147711,28.05838 -29.349763,48.11791 -61.856836,56.17366 35.466065,31.23699 80.243095,71.46776 83.331099,121.5956 2.936075,47.9816 -41.321857,85.1529 -87.134309,85.9634 -36.78925,0.6867 -58.29047,-11.5089 -84.84076,-35.072 -35.61196,-71.307 -105.45403,-95.9729 -151.43768,-157.39229 -19.28083,-25.76005 -27.87987,-47.38036 -39.86279,-76.5374 -9.98701,-38.57822 -10.77914,-54.13166 -11.03811,-93.48744 -0.41788,-5.69955 -0.83687,-12.42904 -0.14664,-18.08147 3.79221,-31.12186 -3.12278,-49.99201 21.47573,-72.22034 -9.28918,-17.3402 -51.30566,-37.51249 -67.58951,-66.06483 z"
         id="path1189-5"
         style="fill:url(#gradient_0-3);stroke-width:2.70116" />
      <path
         fill="#101327"
         d="m -145.76173,899.39488 c -22.1099,24.19539 -141.03226,118.81692 -143.03861,28.32941 -0.96405,-43.53685 53.4155,-122.39861 86.38298,-154.17388 13.7361,-4.60796 26.15983,-9.28745 40.58544,-11.18923 24.70957,4.75302 30.9376,7.84974 52.49102,20.66788 29.982129,38.08293 1.37943,68.22989 -21.0048,101.59279 19.64464,-5.90641 40.265496,-11.34278 57.954925,-21.93373 7.788403,-4.67331 25.390575,-19.89962 32.335281,-20.19436 -1.950508,7.57599 -4.830076,10.18653 -9.738305,16.55391 -1.862126,3.60345 -3.86173,7.15872 -5.974155,10.61767 -17.147711,28.05838 -29.349763,48.11791 -61.856836,56.17366 -11.26704,-13.17977 -14.18956,-16.4266 -28.13694,-26.44412 z"
         id="path1191-5"
         style="stroke-width:2.70116" />
      <path
         fill="#af5a0e"
         d="m -145.76173,899.39488 c 33.14151,-10.96442 71.460739,-16.13233 95.967931,-40.34721 -1.862126,3.60345 -3.86173,7.15872 -5.974155,10.61767 -17.147711,28.05838 -29.349763,48.11791 -61.856836,56.17366 -11.26704,-13.17977 -14.18956,-16.4266 -28.13694,-26.44412 z"
         id="path1193-4"
         style="stroke-width:2.70116" />
      <path
         fill="#f37b16"
         d="m -202.41736,773.55041 c 8.71507,-16.92632 30.47622,-58.13465 28.16744,-75.43707 9.21622,-4.348 20.40314,-10.11584 29.91343,-13.2336 l 17.55653,-12.57032 14.79442,-9.86072 c 7.8098,13.39822 14.152634,18.77573 25.289022,29.69673 -3.684607,9.28837 -3.817222,11.45751 -10.990469,17.85835 -10.807303,3.95965 -16.717743,12.30601 -24.408443,20.99691 -9.9969,12.47463 -26.3201,22.48199 -39.73649,31.36049 -14.42561,1.90178 -26.84934,6.58127 -40.58544,11.18923 z"
         id="path1195-7"
         style="stroke-width:2.70116" />
      <path
         fill="#af5a0e"
         d="m -144.33649,684.87974 17.55653,-12.57032 14.79442,-9.86072 c 7.8098,13.39822 14.152634,18.77573 25.289022,29.69673 -3.684607,9.28837 -3.817222,11.45751 -10.990469,17.85835 -10.807303,3.95965 -16.717743,12.30601 -24.408443,20.99691 20.36603,-30.22384 19.64696,-53.00248 -22.24106,-46.12095 z"
         id="path1197-6"
         style="stroke-width:2.70116" />
      <path
         fill="#09071c"
         d="m -363.75183,547.6891 c 17.56429,-5.36088 23.1583,-6.90328 41.25001,-8.59108 -2.42229,14.50856 -4.35378,22.25148 -19.71675,24.20473 -10.8745,-3.06581 -13.94295,-7.55094 -21.53326,-15.61365 z"
         id="path1199-5"
         style="stroke-width:2.70116" />
      <path
         fill="#612b06"
         d="m -174.24992,698.11334 c -1.56067,-16.62098 27.4871,-25.95654 41.04859,-32.13128 l 6.42137,6.32736 -17.55653,12.57032 c -9.51029,3.11776 -20.69721,8.8856 -29.91343,13.2336 z"
         id="path1201-6"
         style="stroke-width:2.70116" />
      <path
         fill="#f4f5f6"
         d="m -467.11005,596.68228 c 5.03124,-6.07802 10.78892,-13.45211 16.30502,-18.93832 1.68346,14.69571 1.15915,18.2294 -0.7971,33.03822 l -3.26563,3.76005 z"
         id="path1203-9"
         style="stroke-width:2.70116" />
      <path
         fill="#09071c"
         d="m -340.88909,609.42104 c 7.26771,-3.53919 7.67657,-3.33433 16.00174,-2.67609 8.9882,4.12887 10.58395,7.82611 15.96229,16.04651 -9.2301,3.24833 -10.15057,4.02688 -19.63948,3.32058 -7.62255,-4.05777 -8.61545,-8.68576 -12.32455,-16.691 z"
         id="path1205-3"
         style="stroke-width:2.70116" />
      <path
         fill="url(#gradient_1)"
         d="m -161.83192,762.36118 c 13.41639,-8.8785 29.73959,-18.88586 39.73649,-31.36049 7.6907,-8.6909 13.60114,-17.03726 24.408443,-20.99691 7.173247,-6.40084 7.305862,-8.56998 10.990469,-17.85835 19.497549,29.00423 36.802754,53.68605 63.681862,76.69038 37.871803,32.40762 102.432427,64.94079 129.099576,106.88003 43.21218,54.4858 45.84885,126.24866 53.55568,193.01646 2.2002,19.1112 5.28722,54.8597 3.16613,73.5034 -0.39311,3.4846 -0.89501,6.9689 -1.4924,10.4292 -4.32267,22.8621 -20.62834,58.4244 -19.91142,76.1178 -55.404888,52.1946 -139.1597883,-4.3957 -201.379987,-19.3896 l -6.987407,-2.3811 -3.738096,2.1148 c 2.79723,27.4717 28.030573,24.6673 13.183786,82.7804 -65.687056,10.67 -115.136206,-21.9654 -155.977036,-69.7486 -6.9686,-42.5745 0.44956,-81.9268 7.22707,-123.8326 26.55029,23.5631 48.05151,35.7587 84.84076,35.072 45.812452,-0.8105 90.070384,-37.9818 87.134309,-85.9634 -3.088004,-50.12784 -47.865034,-90.35861 -83.331099,-121.5956 32.507073,-8.05575 44.709125,-28.11528 61.856836,-56.17366 2.112385,-3.45897 4.111979,-7.01425 5.974155,-10.61767 4.908229,-6.36738 7.787797,-8.97792 9.738305,-16.55391 -6.944706,0.29474 -24.546878,15.52105 -32.335281,20.19436 -17.689429,10.59095 -38.310285,16.02732 -57.954925,21.93373 22.38423,-33.3629 50.986929,-63.50986 21.0048,-101.59279 -21.55342,-12.81814 -27.78145,-15.91487 -52.49102,-20.66788 z"
         id="path1214-7"
         style="fill:url(#linearGradient1659-0);stroke-width:2.70116" />
      <path
         fill="#af5a0e"
         d="m 161.31433,1152.6649 -5.94279,4.0859 -3.44162,-2.0183 c -10.03885,-78.8436 -34.37181,-170.68091 -46.32987,-250.41431 -2.31729,-15.46712 -6.515718,-18.54607 0.48484,-28.60232 43.21219,54.4858 45.84886,126.24873 53.55569,193.01643 2.20021,19.1113 5.28722,54.8598 3.16613,73.5034 -0.39311,3.4846 -0.89501,6.9689 -1.4924,10.4292 z"
         id="path1216-4"
         style="stroke-width:2.70116" />
      <path
         fill="#612b06"
         d="m -161.83192,762.36118 c 13.41639,-8.8785 29.73959,-18.88586 39.73649,-31.36049 7.6907,-8.6909 13.60114,-17.03726 24.408443,-20.99691 -14.868693,28.71919 -16.969023,32.62179 -43.014323,52.98554 8.90485,5.2348 24.21002,13.47862 31.36041,20.03974 -21.55342,-12.81814 -27.78145,-15.91487 -52.49102,-20.66788 z"
         id="path1218-5"
         style="stroke-width:2.70116" />
      <path
         fill="#f37b16"
         d="m -467.11005,596.68228 c -8.99611,-30.48927 -0.60216,-62.50997 12.22573,-90.53599 40.48118,-88.44553 50.1567,-164.6404 161.61916,-165.38174 l 1.10542,-5.06961 c 16.88213,2.01172 34.29171,3.70413 50.89316,7.20685 91.90767,-108.47175 168.594875,-170.99203 172.734806,24.15435 0.706224,33.719 -27.106714,98.69365 -14.041962,118.89986 l -4.937863,3.91742 c 23.131809,49.91021 35.732296,75.43148 20.846448,130.80846 -21.851158,19.88458 -28.435573,26.99968 -56.498449,37.87078 1.42178,-3.20271 2.75517,-6.42522 4.00022,-9.66757 10.06625,-25.56571 9.99756,-33.09104 -0.78209,-58.06011 -54.31514,-46.89161 -133.75245,-48.83877 -202.55635,-51.72696 -18.09171,1.6878 -23.68572,3.2302 -41.25001,8.59108 -32.89552,-8.01324 -63.48064,8.66896 -87.0532,30.05486 -5.5161,5.48621 -11.27378,12.8603 -16.30502,18.93832 z"
         id="path1220-2"
         style="stroke-width:2.70116" />
      <path
         fill="#101327"
         d="m -293.26516,340.76455 1.10542,-5.06961 c 16.88213,2.01172 34.29171,3.70413 50.89316,7.20685 91.90767,-108.47175 168.594875,-170.99203 172.734806,24.15435 0.706224,33.719 -27.106714,98.69365 -14.041962,118.89986 l -4.937863,3.91742 c -6.208078,-9.75992 -12.638291,-19.36737 -19.281281,-28.81696 -44.80197,-62.92053 -109.50269,-107.63643 -186.47228,-120.29191 z"
         id="path1222-5"
         style="stroke-width:2.70116" />
      <path
         fill="#f4f5f6"
         d="m -183.82944,366.8932 c 21.86234,-29.54709 71.74747,-87.08067 76.50229,-9.47875 2.03344,84.1091 -40.8465,42.35361 -76.50229,9.47875 z"
         id="path1224-4"
         style="stroke-width:2.70116" />
      <path
         fill="#09071c"
         d="m -264.02726,491.73228 c 13.04939,-17.19987 16.73557,-17.4421 36.27827,-13.021 -3.44302,9.73973 -4.20212,12.95074 -12.41556,17.97127 -10.18648,1.47976 -14.23404,-1.16902 -23.86271,-4.95027 z"
         id="path1226-7"
         style="stroke-width:2.70116" />
      <path
         fill="#09071c"
         d="m -424.43893,509.93782 c 5.81171,-7.46766 6.10098,-8.17397 13.94075,-13.09835 9.31793,0.73233 6.90093,0.95879 15.73088,7.52271 -1.36962,9.47087 0.32157,6.86037 -5.27062,13.33194 -9.10824,1.54083 -15.71132,-3.33192 -24.40101,-7.7563 z"
         id="path1228-4"
         style="stroke-width:2.70116" />
      <path
         fill="#f37b16"
         d="m -86.696518,692.14543 c -11.136388,-10.921 -17.479222,-16.29851 -25.289022,-29.69673 51.999339,-10.89986 60.789602,52.65704 90.751874,80.74764 18.1052637,15.50592 46.632962,36.81087 67.308168,47.68725 86.042258,45.2163 111.600218,104.66794 124.374178,197.78517 9.94539,72.45804 23.27638,179.96374 -29.04577,240.11394 -0.71692,-17.6934 15.58875,-53.2557 19.91142,-76.1178 0.59739,-3.4603 1.09929,-6.9446 1.4924,-10.4292 2.12109,-18.6437 -0.96593,-54.3922 -3.16613,-73.5034 C 151.93377,1001.9645 149.2971,930.20164 106.08492,875.71584 79.417771,833.7766 14.857147,801.24343 -23.014656,768.83581 -49.893764,745.83148 -67.198969,721.14966 -86.696518,692.14543 Z"
         id="path1230-4"
         style="stroke-width:2.70116" />
      <path
         fill="#101327"
         d="m -607.59571,1086.1997 c 7.11199,-6.1867 14.47772,-31.4399 24.95419,-40.3316 46.18111,-39.2113 91.81143,-56.90731 125.38897,-109.29026 3.93743,9.32231 -2.56778,46.2075 15.62096,65.16136 15.76309,16.4617 34.25555,27.8557 56.438,26.5647 l 1.70839,3.2321 c -7.8458,15.3072 -28.58892,20.3611 -44.09125,25.3217 -22.40536,7.1821 -130.98067,25.5908 -137.98508,35.8321 -0.7213,1.0494 -1.01563,2.283 -1.39127,3.5008 -11.77832,3.5239 -32.15737,-0.3507 -40.64291,-9.9909 z"
         id="path1232-3"
         style="stroke-width:2.70116" />
      <path
         fill="#f37b16"
         d="m -419.00407,1010.6549 c -44.60944,-40.32116 -37.53535,-107.97468 -30.42339,-162.91187 3.89858,-30.03115 15.31737,-59.05784 40.82012,-76.83416 0.25897,39.35578 1.0511,54.90922 11.03811,93.48744 -2.30141,20.31737 2.67161,33.6373 8.9059,53.08136 l -0.55891,2.57801 c -4.58833,21.80414 -4.55668,79.18141 -17.12169,90.60992 z"
         id="path1234-0"
         style="stroke-width:2.70116" />
      <path
         fill="#101327"
         d="m -63.026197,1306.4435 c 17.574946,-14.0878 50.550854,-54.8724 66.0224847,-57.3866 6.823794,24.4629 8.6247993,34.5791 5.906917,60.0208 -3.2579,30.5257 -31.0640127,170.9538 -80.3417657,138.7292 2.747064,-59.9214 21.790538,-81.7388 8.412364,-141.3634 z"
         id="path1236-7"
         style="stroke-width:2.70116" />
      <path
         fill="#101327"
         d="m -411.59135,359.28277 c 1.69132,-24.9115 4.98483,-94.90367 42.64219,-97.55302 19.82227,-1.40602 41.69039,43.06486 45.40434,61.27213 -22.25124,13.7274 -58.72902,39.95147 -80.14917,50.47824 z"
         id="path1238-8"
         style="stroke-width:2.70116" />
      <path
         fill="#af5a0e"
         d="m -419.00407,1010.6549 12.66014,0.011 c 12.56501,-11.42861 12.53336,-68.80588 17.12169,-90.61002 l 0.55891,-2.57801 c 15.45852,22.86705 25.41473,36.75595 44.47479,57.24214 -20.02845,38.30989 -27.72116,66.71199 -73.28875,36.91009 z"
         id="path1240-6"
         style="stroke-width:2.70116" />
      <path
         fill="#af5a0e"
         d="m -57.518794,1291.9072 c 14.846787,-58.1131 -10.386556,-55.3087 -13.183786,-82.7804 l 3.738096,-2.1148 6.987407,2.3811 c 13.741584,12.5186 32.57629,19.0573 49.969883,26.1364 -16.613508,25.934 -23.189585,36.2978 -47.5116,56.3777 z"
         id="path1242-8"
         style="stroke-width:2.70116" />
      <path
         fill="url(#gradient_2)"
         d="m 183.06465,1015.3841 c 1.00556,-9.4939 2.86626,-20.61499 11.72713,-25.57364 58.04477,-32.42418 142.73654,-2.49107 196.68723,17.36644 49.56664,30.3952 76.5502,46.941 111.59324,95.993 -34.19024,26.7027 -68.87269,54.9926 -112.09815,64.7199 -1.25222,-18.252 0.98927,-22.8528 -15.18803,-32.8166 1.41198,5.3067 1.16103,7.1893 4.4746,11.0985 -5.7167,59.7974 -155.31183,28.043 -187.69394,-4.5326 -6.67843,-37.4478 -1.3245,-94.7099 -9.50208,-126.255 z"
         id="path1251-8"
         style="fill:url(#linearGradient1663-2);stroke-width:2.70116" />
      <path
         fill="#f4f5f6"
         d="m 364.99128,1044.0656 c 11.4033,-4.3329 21.73172,-6.604 28.91706,-15.8673 1.84295,-8.0437 1.79247,-8.2911 -1.60026,-16.0825 l -0.82907,-4.9389 c 49.56664,30.3952 76.5502,46.941 111.59324,95.993 -34.19024,26.7027 -68.87269,54.9926 -112.09815,64.7199 -1.25222,-18.252 0.98927,-22.8528 -15.18803,-32.8166 -5.49181,-5.6035 -5.724,-6.7356 -9.1951,-13.9485 3.45359,-19.309 21.88065,-9.7306 33.22588,-25.9182 0.8314,-20.6669 -24.49093,-27.4269 -34.82557,-51.1409 z"
         id="path1253-4"
         style="stroke-width:2.70116" />
      <path
         fill="#f37b16"
         d="m 183.06465,1015.3841 c 1.00556,-9.4939 2.86626,-20.61499 11.72713,-25.57364 58.04477,-32.42418 142.73654,-2.49107 196.68723,17.36644 l 0.82907,4.9389 c 3.39273,7.7914 3.44321,8.0388 1.60026,16.0825 -7.18534,9.2633 -17.51376,11.5344 -28.91706,15.8673 0.78404,-23.3456 -6.15144,-28.2854 -23.19476,-42.0865 -61.60125,-14.01302 -99.54575,-2.95213 -158.73187,13.405 z"
         id="path1255-3"
         style="stroke-width:2.70116" />
      <path
         fill="#af5a0e"
         d="m 341.79652,1001.9791 c 18.01504,7.2507 30.98215,12.4292 50.51156,10.1367 3.39273,7.7914 3.44321,8.0388 1.60026,16.0825 -7.18534,9.2633 -17.51376,11.5344 -28.91706,15.8673 0.78404,-23.3456 -6.15144,-28.2854 -23.19476,-42.0865 z"
         id="path1257-1"
         style="stroke-width:2.70116" />
      <path
         fill="#f37b16"
         d="m 192.56673,1141.6391 c 16.11144,-1.8017 43.61328,11.6748 68.41586,11.491 35.55447,-0.2765 86.89862,-17.0755 119.27808,-6.9584 -5.7167,59.7974 -155.31183,28.043 -187.69394,-4.5326 z"
         id="path1259-4"
         style="stroke-width:2.70116" />
      <path
         fill="#101327"
         d="m 97.823352,1261.3864 c 32.577468,-11.4459 53.092128,-36.001 72.159228,-39.0593 3.49362,20.2634 7.9782,40.3502 13.44961,60.1649 7.51004,26.6994 36.56161,100.0827 20.53576,128.7264 -17.33029,30.9785 -56.14302,-3.2511 -66.47076,-27.9282 -11.17938,-26.6969 -21.3536,-58.3654 -31.13394,-87.9663 9.76622,-15.4461 0.38902,-20.1114 -8.539898,-33.9375 z"
         id="path1305-9"
         style="stroke-width:2.70116" />
    </g>
  </g>
</svg>
